<svg xmlns="http://www.w3.org/2000/svg" xmlns:xlink="http://www.w3.org/1999/xlink" version="1.1" id="Capa_1" x="0px" y="0px" viewBox="0 0 512 512" style="enable-background:new 0 0 512 512;" xml:space="preserve">
<g>
	<g>
		<path d="M180.364,94.255l-12.8-6.982c-16.291-8.145-37.236-8.145-54.691,0l-12.8,6.982c-5.818,3.491-8.146,10.473-5.818,15.127    c3.491,5.818,10.473,8.145,15.127,5.818l12.8-6.982c10.473-4.655,24.436-4.655,33.745,0l12.8,6.982    c2.327,1.164,3.491,1.164,5.818,1.164c4.655,0,8.145-2.327,10.473-6.982C187.345,103.564,185.018,96.582,180.364,94.255z"/>
	</g>
</g>
<g>
	<g>
		<path d="M416.582,180.364c-2.327-5.818-9.309-8.145-15.127-4.655l-12.8,6.982c-10.473,4.655-23.273,4.655-33.745,0l-12.8-6.982    c-5.818-2.327-12.8,0-15.127,4.655c-2.327,5.818,0,12.8,4.655,15.127l13.964,6.982c8.145,4.655,17.455,6.982,26.764,6.982    s18.618-2.327,26.764-6.982l12.8-6.982C417.745,193.164,420.073,186.182,416.582,180.364z"/>
	</g>
</g>
<g>
	<g>
		<path d="M245.527,256V11.636C244.364,4.655,239.709,0,232.727,0H69.818C50.036,0,34.909,15.127,34.909,34.909v209.455    c0,109.382,88.436,197.818,197.818,197.818c6.982,0,11.636-4.655,11.636-11.636v-81.455c0-6.982-4.655-11.636-11.636-11.636    h-34.909c-6.982,0-11.636,4.655-11.636,11.636c0,6.982,4.655,11.636,11.636,11.636h23.273v58.182    c-90.764-5.818-162.909-81.455-162.909-174.545V34.909c0-6.982,4.655-11.636,11.636-11.636h151.273V243.2    c-27.927-4.655-55.855-23.273-70.982-51.2c-2.327-4.655-8.145-6.982-12.8-5.818s-8.145,5.818-8.145,11.636    c1.164,54.691,46.545,116.364,104.727,116.364c6.982,0,11.636-4.655,11.636-11.636s-4.655-11.636-11.636-11.636    c-29.091,0-54.691-20.945-68.655-47.709c19.782,15.127,44.218,24.436,68.655,24.436C240.873,267.636,245.527,262.982,245.527,256z    "/>
	</g>
</g>
<g>
	<g>
		<path d="M442.182,69.818H279.273c-6.982,0-11.636,4.655-11.636,11.636V256c0,6.982,4.655,11.636,11.636,11.636h34.909    c6.982,0,11.636-4.655,11.636-11.636s-4.655-11.636-11.636-11.636h-23.273V93.091h151.273c6.982,0,11.636,4.655,11.636,11.636    v209.455c0,91.927-72.145,168.727-162.909,174.545v-128c30.255,3.491,57.018,17.455,70.982,40.727    c2.327,4.655,8.145,5.818,12.8,4.655c4.655-1.164,8.145-5.818,8.145-11.636c-1.164-48.873-46.545-104.727-104.727-104.727    c-6.982,0-11.636,4.655-11.636,11.636s4.655,11.636,11.636,11.636c29.091,0,54.691,18.618,68.655,41.891    c-19.782-11.636-43.055-18.618-68.655-18.618c-6.982,0-11.636,4.655-11.636,11.636V499.2c0,3.491,1.164,5.818,3.491,8.146    c2.327,2.327,5.818,4.654,9.309,4.654c109.382,0,197.818-88.436,197.818-197.818V104.727    C477.091,84.945,461.964,69.818,442.182,69.818z"/>
	</g>
</g>
<g>
</g>
<g>
</g>
<g>
</g>
<g>
</g>
<g>
</g>
<g>
</g>
<g>
</g>
<g>
</g>
<g>
</g>
<g>
</g>
<g>
</g>
<g>
</g>
<g>
</g>
<g>
</g>
<g>
</g>
</svg>